<svg xmlns="http://www.w3.org/2000/svg" viewBox="0 0 512 512" style="enable-background:new 0 0 512 512" xml:space="preserve"><path style="fill:#fff" d="m244.457 327.586-24.799 14.368-24.799-14.368v-28.738l24.799-14.368 24.799 14.368z"/><path style="fill:#f1f2f2" d="M436.062 178.2h-9.234v-31.274c0-62.053-50.128-112.356-111.962-112.356-45.809 0-85.183 27.611-102.522 67.151-13.502-12.218-31.378-19.66-50.992-19.66-42.075 0-76.18 34.227-76.18 76.448V178.2h-9.235c-37.61 0-68.1 30.597-68.1 68.34s30.49 68.339 68.1 68.339h360.125c37.611 0 68.101-30.597 68.101-68.339 0-37.743-30.49-68.34-68.101-68.34z"/><path style="fill:#fff" d="m362.271 376.559-20.239 11.727-20.24-11.727v-23.452l20.24-11.728 20.239 11.728zM217.525 436.855l-15.391 8.915-15.389-8.915v-17.833l15.389-8.917 15.391 8.917zM314.097 468.513l-15.39 8.917-15.389-8.917V450.68l15.389-8.916 15.39 8.916zM126.724 377.754l-15.389 8.915-15.39-8.915v-17.836l15.39-8.915 15.389 8.915z"/><g style="opacity:.2"><path style="fill:#414042" d="M39.706 268.395c0-37.744 30.49-68.34 68.1-68.34h9.235v-19.691c0-42.221 34.107-81.098 76.18-81.098 19.614 0-12.256-17.204-31.869-17.204-42.075 0-76.18 34.227-76.18 76.448v19.69h-9.235c-37.61 0-68.1 30.597-68.1 68.34 0 30.425 19.82 56.195 47.204 65.048-9.582-11.772-15.335-26.807-15.335-43.193z"/></g><path style="fill:#636052" d="M436.062 170.363h-1.397v-23.437c0-66.275-53.742-120.193-119.799-120.193-44.127 0-84.42 24.334-105.264 62.775a83.648 83.648 0 0 0-48.25-15.285c-46.328 0-84.017 37.811-84.017 84.285v11.854h-1.398C34.066 170.363 0 204.537 0 246.541s34.066 76.176 75.937 76.176h111.086v4.868a7.835 7.835 0 0 0 3.908 6.78l24.799 14.368a7.83 7.83 0 0 0 7.858 0l24.799-14.368a7.835 7.835 0 0 0 3.908-6.78v-4.868h183.768c41.872 0 75.938-34.172 75.938-76.176s-34.067-76.178-75.939-76.178zM236.62 323.07l-16.962 9.827-16.962-9.827v-.352h33.925v.352h-.001zm199.442-16.026H75.937c-33.23 0-60.263-27.142-60.263-60.504 0-33.363 27.034-60.504 60.263-60.504h9.235a7.837 7.837 0 0 0 7.837-7.837v-19.691c0-37.832 30.659-68.611 68.344-68.611 16.925 0 33.167 6.263 45.734 17.634a7.838 7.838 0 0 0 12.434-2.663c16.64-37.943 54.064-62.462 95.346-62.462 57.415 0 104.125 46.887 104.125 104.519v31.274a7.837 7.837 0 0 0 7.837 7.837h9.234c33.23 0 60.264 27.142 60.264 60.504 0 33.362-27.035 60.504-60.265 60.504z"/><path style="fill:#636052" d="m366.2 346.325-20.24-11.728a7.832 7.832 0 0 0-7.858 0l-20.24 11.728a7.833 7.833 0 0 0-3.908 6.78v23.453a7.835 7.835 0 0 0 3.908 6.78l20.24 11.727a7.832 7.832 0 0 0 7.858 0l20.24-11.727a7.835 7.835 0 0 0 3.908-6.78v-23.453a7.836 7.836 0 0 0-3.908-6.78zm-11.765 25.717-12.403 7.186-12.403-7.186v-14.42l12.403-7.187 12.403 7.187v14.42zM221.454 412.24l-15.39-8.916a7.842 7.842 0 0 0-7.858 0l-15.39 8.916a7.836 7.836 0 0 0-3.908 6.781v17.833a7.839 7.839 0 0 0 3.908 6.781l15.39 8.915a7.838 7.838 0 0 0 7.858 0l15.39-8.915a7.838 7.838 0 0 0 3.908-6.781v-17.833a7.84 7.84 0 0 0-3.908-6.781zm-11.766 20.098-7.554 4.376-7.554-4.376v-8.8l7.554-4.376 7.554 4.376v8.8zM318.025 443.899l-15.39-8.915a7.842 7.842 0 0 0-7.858 0l-15.39 8.915a7.838 7.838 0 0 0-3.908 6.781v17.833a7.838 7.838 0 0 0 3.908 6.781l15.39 8.916a7.841 7.841 0 0 0 7.858 0l15.39-8.916a7.837 7.837 0 0 0 3.908-6.781V450.68a7.833 7.833 0 0 0-3.908-6.781zm-11.764 20.097-7.553 4.376-7.554-4.376v-8.8l7.554-4.376 7.553 4.376v8.8zM130.653 353.137l-15.39-8.915a7.842 7.842 0 0 0-7.858 0l-15.39 8.915a7.838 7.838 0 0 0-3.908 6.781v17.834a7.839 7.839 0 0 0 3.908 6.781l15.39 8.915a7.838 7.838 0 0 0 7.858 0l15.39-8.915a7.838 7.838 0 0 0 3.908-6.781v-17.834a7.837 7.837 0 0 0-3.908-6.781zm-11.766 20.1-7.554 4.376-7.553-4.376v-8.801l7.553-4.376 7.554 4.376v8.801z"/></svg>